<?xml version="1.0" standalone="no"?>
<!DOCTYPE svg PUBLIC "-//W3C//DTD SVG 20010904//EN"
 "http://www.w3.org/TR/2001/REC-SVG-20010904/DTD/svg10.dtd">
<svg version="1.0" xmlns="http://www.w3.org/2000/svg"
 width="531.000000pt" height="469.000000pt" viewBox="0 0 531.000000 469.000000"
 preserveAspectRatio="xMidYMid meet">

<g transform="translate(0.000000,469.000000) scale(0.100000,-0.100000)"
fill="#000000" stroke="none">
<path d="M2300 3785 l-285 -285 -411 0 c-405 0 -411 0 -430 -21 -18 -20 -19
-46 -24 -423 l-5 -401 -277 -277 c-240 -239 -278 -280 -278 -306 0 -26 40 -70
302 -331 202 -202 308 -301 322 -301 14 0 119 98 318 297 253 253 298 302 298
327 0 24 -38 66 -240 268 -132 132 -240 243 -240 249 0 5 138 9 348 9 325 0
350 1 365 18 15 17 17 56 17 360 0 188 3 342 7 342 4 0 118 -110 253 -245 208
-208 250 -245 275 -245 25 0 67 37 275 245 135 135 249 245 253 245 4 0 7
-155 7 -345 0 -332 1 -346 20 -365 19 -19 33 -20 357 -20 l337 0 -242 -243
c-183 -184 -242 -249 -242 -267 0 -36 595 -630 630 -630 36 0 620 584 620 620
0 19 -62 87 -277 302 l-278 278 -3 413 c-2 371 -4 413 -19 425 -13 9 -115 12
-432 12 l-416 0 -290 290 c-179 179 -298 290 -310 290 -12 0 -129 -110 -305
-285z m573 -118 l230 -229 -239 -239 c-131 -131 -243 -239 -249 -239 -6 0
-119 109 -252 243 l-243 242 242 243 c235 236 242 242 261 225 10 -10 123
-121 250 -246z m-905 -624 l2 -343 -350 0 -350 0 0 345 0 345 348 -2 347 -3 3
-342z m1990 -5 l-3 -343 -345 0 -345 0 -3 343 -2 342 350 0 350 0 -2 -342z
m-2499 -732 l245 -244 -242 -242 -241 -242 -28 21 c-15 11 -129 122 -253 246
l-225 225 240 240 c132 132 244 240 250 240 5 0 119 -110 254 -244z m2790 7
c132 -131 241 -243 241 -248 0 -6 -108 -118 -240 -250 l-240 -240 -247 248
-248 247 240 240 c132 132 243 240 246 240 4 0 115 -107 248 -237z"/>
<path d="M2510 3453 c-22 -60 -45 -118 -50 -130 -9 -22 -7 -23 29 -23 30 0 40
4 44 20 4 16 14 20 46 20 30 0 44 -5 53 -20 14 -21 78 -29 78 -9 0 6 -21 64
-47 130 -47 117 -49 119 -80 119 -31 0 -32 -2 -73 -107z m95 -30 c6 -31 5 -33
-19 -33 -29 0 -32 13 -16 56 12 32 25 23 35 -23z"/>
<path d="M1536 3163 c-26 -4 -28 -7 -22 -35 3 -17 6 -77 6 -134 0 -102 0 -104
23 -104 13 0 28 5 33 10 8 8 19 7 37 -1 38 -17 89 14 101 64 19 76 -38 135
-106 109 l-28 -10 0 54 c0 30 -3 53 -7 53 -5 -1 -21 -4 -37 -6z m109 -173 c0
-32 -2 -35 -30 -35 -24 0 -31 5 -33 23 -5 30 16 54 42 50 17 -2 21 -10 21 -38z"/>
<path d="M3604 3136 c-10 -26 4 -48 28 -44 17 2 23 10 23 28 0 18 -6 26 -23
28 -13 2 -25 -3 -28 -12z"/>
<path d="M3600 2980 l0 -90 30 0 30 0 0 90 0 90 -30 0 -30 0 0 -90z"/>
<path d="M1149 2203 c-6 -16 -28 -74 -49 -130 l-38 -103 34 0 c23 0 37 6 44
20 8 16 21 20 56 20 37 0 47 -4 51 -20 4 -15 14 -20 39 -20 19 0 34 4 34 10 0
5 -21 64 -47 130 l-46 120 -34 0 c-27 0 -36 -5 -44 -27z m64 -110 c6 -30 4
-33 -18 -33 -28 0 -31 13 -15 56 12 32 25 23 33 -23z"/>
<path d="M3990 2181 c-47 -24 -53 -68 -16 -112 33 -39 33 -57 -1 -71 -16 -7
-30 -13 -32 -15 -2 -1 4 -14 13 -27 14 -22 19 -24 46 -15 35 13 70 53 70 81 0
10 -12 36 -26 58 -29 43 -26 70 5 70 18 0 19 3 9 25 -13 30 -23 31 -68 6z"/>
<path d="M2720 2621 c0 -47 -3 -52 -85 -142 -86 -96 -152 -193 -161 -240 -6
-24 -11 -27 -67 -31 -42 -4 -94 -19 -159 -47 -98 -42 -172 -55 -228 -39 -26 7
-27 6 -78 -154 -28 -89 -50 -164 -48 -166 2 -2 30 -10 62 -19 85 -22 149 -11
276 48 109 50 196 69 252 55 14 -3 41 -20 61 -37 l35 -31 0 24 c0 13 -5 29
-11 35 -22 22 -27 93 -12 164 16 79 60 160 135 251 76 90 118 165 118 208 0
41 -52 155 -75 164 -12 4 -15 -5 -15 -43z"/>
<path d="M2793 2369 c-17 -30 -62 -93 -100 -140 -94 -116 -123 -181 -123 -273
l0 -51 33 57 c29 52 74 118 171 249 42 56 59 109 54 169 l-3 45 -32 -56z"/>
<path d="M2775 2167 c-53 -62 -155 -213 -165 -244 -4 -16 -11 -45 -14 -66 l-5
-38 42 33 c39 32 45 33 127 33 80 -1 91 -4 190 -49 126 -57 194 -71 287 -56
38 6 72 16 78 21 7 7 -8 64 -44 170 -43 125 -58 158 -70 155 -76 -21 -143 -13
-244 30 -34 14 -81 32 -104 39 l-42 14 -36 -42z"/>
<path d="M2711 1830 c-18 -4 -53 -22 -78 -39 -24 -17 -46 -31 -48 -31 -2 0
-25 15 -51 33 -41 29 -53 32 -112 31 -56 -1 -85 -9 -177 -48 -130 -55 -213
-67 -285 -42 -48 16 -54 14 -65 -22 l-7 -23 244 6 c133 3 279 8 324 11 65 4
83 2 94 -11 16 -20 50 -19 79 2 22 15 56 15 363 9 l339 -7 -7 28 c-4 15 -8 29
-9 31 -1 1 -19 -5 -41 -14 -68 -29 -189 -15 -310 35 -85 34 -189 64 -213 60
-3 -1 -21 -5 -40 -9z"/>
<path d="M1218 1413 c-16 -4 -18 -19 -18 -124 0 -97 3 -119 14 -119 8 0 18 5
21 10 4 7 12 7 25 0 31 -16 59 -12 85 15 41 40 27 113 -25 135 -21 9 -33 9
-50 0 -29 -16 -34 -8 -31 45 1 25 1 44 -1 44 -2 -1 -11 -3 -20 -6z m94 -115
c27 -21 30 -53 9 -79 -16 -20 -23 -22 -47 -14 -22 8 -30 18 -32 41 -5 50 35
79 70 52z"/>
<path d="M1543 1413 c-8 -3 -13 -23 -13 -50 0 -37 -3 -44 -16 -39 -46 18 -62
17 -88 -6 -40 -35 -44 -77 -11 -116 30 -35 59 -40 93 -16 20 14 22 14 22 0 0
-9 7 -16 15 -16 12 0 15 18 15 103 0 56 3 112 6 125 6 22 1 25 -23 15z m-33
-123 c25 -25 25 -41 2 -70 -36 -45 -106 4 -79 55 20 40 47 45 77 15z"/>
<path d="M2246 1412 c-17 -4 -18 -10 -12 -64 3 -34 6 -87 6 -119 0 -46 3 -59
15 -59 12 0 15 13 15 58 0 54 2 60 26 71 40 18 54 0 54 -70 0 -46 3 -59 15
-59 12 0 15 15 15 75 0 70 -2 76 -25 87 -19 9 -29 8 -49 -6 -14 -9 -27 -16
-30 -16 -3 0 -6 24 -8 53 -3 45 -6 52 -22 49z"/>
<path d="M4235 1408 c-26 -15 -35 -28 -35 -55 0 -13 -4 -23 -10 -23 -5 0 -10
-7 -10 -15 0 -8 5 -15 10 -15 6 0 10 -28 10 -65 0 -51 3 -65 15 -65 12 0 15
14 15 65 0 58 2 65 20 65 11 0 20 7 20 15 0 8 -9 15 -20 15 -13 0 -20 7 -20
20 0 11 9 25 20 32 11 7 20 18 20 25 0 16 -9 16 -35 1z"/>
<path d="M1007 1317 c-48 -125 -53 -147 -35 -147 8 0 20 11 26 25 10 22 18 25
67 25 50 0 56 -2 65 -25 6 -15 17 -25 29 -25 18 0 17 6 -14 83 -59 149 -63
157 -83 157 -15 0 -27 -20 -55 -93z m89 -54 c-6 -14 -34 -17 -59 -7 -14 5 -14
10 -2 45 8 22 18 45 22 51 8 15 46 -70 39 -89z"/>
<path d="M3200 1290 c0 -97 3 -120 14 -120 8 0 16 5 18 11 3 9 9 9 25 0 12 -6
31 -11 42 -11 29 0 71 49 71 83 0 38 -52 92 -80 83 -65 -20 -60 -22 -60 28 0
34 -4 46 -15 46 -12 0 -15 -20 -15 -120z m111 10 c22 -12 27 -68 7 -88 -19
-19 -55 -14 -72 10 -21 30 -20 44 4 68 23 23 33 24 61 10z"/>
<path d="M3822 1383 c-78 -206 -80 -213 -61 -213 12 0 23 10 29 25 9 22 15 25
63 25 48 0 55 -3 65 -25 12 -26 42 -35 41 -12 0 6 -19 59 -43 117 -33 80 -48
106 -63 108 -15 2 -24 -5 -31 -25z m64 -120 c-6 -14 -34 -17 -59 -7 -14 5 -14
10 -2 45 8 22 18 45 22 51 8 15 46 -70 39 -89z"/>
<path d="M3400 1374 c0 -9 7 -14 17 -12 25 5 28 28 4 28 -12 0 -21 -6 -21 -16z"/>
<path d="M2074 1328 c-47 -22 -57 -95 -19 -133 28 -29 51 -31 83 -9 20 14 23
14 28 0 3 -9 12 -16 20 -16 11 0 14 17 14 74 0 72 -13 104 -30 76 -6 -10 -13
-9 -31 4 -27 18 -35 19 -65 4z m71 -34 c26 -26 16 -77 -17 -88 -22 -8 -32 -6
-48 9 -25 23 -26 49 0 75 24 24 43 25 65 4z"/>
<path d="M2763 1330 c-50 -20 -60 -105 -17 -139 32 -25 52 -26 81 -6 20 14 23
14 32 -2 16 -29 23 -9 24 66 0 72 -7 97 -22 72 -7 -11 -13 -11 -32 3 -26 18
-34 19 -66 6z m69 -37 c22 -20 23 -51 1 -75 -20 -22 -46 -23 -67 -2 -23 22
-20 60 6 78 28 20 37 20 60 -1z"/>
<path d="M2992 1324 c-16 -11 -27 -13 -35 -5 -26 21 -35 -3 -30 -76 4 -53 10
-73 19 -73 10 0 14 16 14 60 0 55 2 62 25 72 39 18 55 -3 55 -73 0 -46 3 -59
15 -59 22 0 21 132 -1 154 -20 20 -34 20 -62 0z"/>
<path d="M3541 1324 c-18 -13 -25 -14 -31 -4 -17 28 -30 -4 -30 -76 0 -59 3
-74 15 -74 12 0 15 13 15 55 0 46 4 57 24 70 13 8 30 13 39 10 17 -7 32 -84
22 -115 -5 -16 -2 -20 15 -20 21 0 22 3 18 71 -3 55 -8 74 -23 85 -24 18 -35
18 -64 -2z"/>
<path d="M1606 1314 c-13 -33 -6 -102 12 -124 15 -18 24 -21 50 -15 18 3 32
11 32 16 0 5 5 9 10 9 6 0 10 -7 10 -16 0 -9 7 -14 18 -12 14 3 17 16 20 81 3
72 1 77 -18 77 -18 0 -20 -6 -20 -55 0 -49 -3 -57 -24 -67 -43 -19 -56 -5 -56
62 0 45 -4 60 -14 60 -8 0 -17 -7 -20 -16z"/>
<path d="M1800 1248 c0 -63 3 -78 15 -78 11 0 15 13 15 53 0 55 12 77 42 77
10 0 18 6 18 13 0 9 -14 14 -45 14 l-45 0 0 -79z"/>
<path d="M1920 1248 c0 -61 3 -78 14 -78 14 0 23 29 25 83 1 37 8 47 32 47 10
0 19 6 19 13 0 9 -14 14 -45 14 l-45 0 0 -79z"/>
<path d="M2434 1322 c-17 -10 -6 -152 12 -152 9 0 14 18 16 57 3 53 5 58 31
67 37 13 47 -2 47 -71 0 -40 4 -53 15 -53 12 0 15 13 15 55 0 49 3 57 24 67
43 19 56 5 56 -62 0 -47 3 -60 15 -60 21 0 22 132 0 150 -15 12 -70 6 -80 -10
-3 -5 -19 -1 -35 8 -28 16 -32 16 -58 1 -24 -14 -30 -14 -38 -3 -5 8 -14 11
-20 6z"/>
<path d="M3400 1250 c0 -73 2 -80 20 -80 18 0 20 7 20 64 0 73 -6 96 -26 96
-11 0 -14 -18 -14 -80z"/>
<path d="M3994 1295 c-17 -90 27 -147 86 -113 24 14 29 14 34 2 3 -8 12 -14
21 -14 12 0 15 15 15 81 0 71 -2 80 -17 77 -14 -2 -19 -15 -21 -56 -3 -45 -7
-55 -27 -64 -38 -17 -55 4 -55 68 0 41 -4 54 -15 54 -8 0 -17 -14 -21 -35z"/>
<path d="M2775 1054 c-61 -32 -69 -65 -30 -112 14 -17 25 -39 25 -51 0 -14 -8
-23 -25 -27 -28 -7 -31 -21 -11 -49 12 -16 17 -17 44 -6 69 29 82 76 37 141
-28 41 -27 60 6 60 22 0 23 1 7 35 -13 29 -13 29 -53 9z"/>
<path d="M3083 1063 l-33 -4 4 -127 4 -127 28 0 c28 0 29 2 32 50 3 65 7 75
31 75 25 0 34 -28 25 -85 l-6 -45 36 0 36 0 0 71 c0 89 -10 109 -55 109 -18 0
-37 -4 -40 -10 -3 -5 -13 -10 -22 -10 -13 0 -15 10 -11 55 3 30 4 54 4 53 -1
0 -16 -3 -33 -5z"/>
<path d="M1422 1051 c-23 -14 -10 -46 19 -49 30 -4 46 22 28 44 -13 16 -28 17
-47 5z"/>
<path d="M1660 930 l0 -130 30 0 30 0 0 130 0 130 -30 0 -30 0 0 -130z"/>
<path d="M2362 1051 c-20 -12 -10 -45 14 -49 29 -4 51 23 34 43 -14 17 -29 19
-48 6z"/>
<path d="M3700 930 l0 -130 30 0 30 0 0 130 0 130 -30 0 -30 0 0 -130z"/>
<path d="M1814 980 c-56 -23 -73 -112 -29 -155 25 -26 73 -33 92 -14 8 8 13 8
17 0 4 -6 20 -11 36 -11 l29 0 -1 89 c-1 86 -2 89 -25 94 -15 3 -27 -1 -29 -8
-4 -11 -11 -10 -32 1 -31 16 -30 16 -58 4z m76 -69 c12 -23 5 -47 -17 -55 -38
-15 -71 22 -51 58 12 22 55 20 68 -3z"/>
<path d="M2095 974 c-19 -10 -31 -11 -33 -5 -2 6 -17 11 -33 11 l-29 0 0 -90
0 -90 30 0 c30 0 30 0 30 59 0 51 3 61 20 66 32 10 40 -3 40 -66 0 -59 0 -59
30 -59 30 0 30 1 30 53 0 60 10 80 36 75 16 -3 20 -14 22 -66 3 -61 3 -62 32
-62 l30 0 0 80 c0 73 -2 81 -24 96 -23 14 -28 14 -61 -2 -24 -11 -39 -14 -43
-7 -13 19 -47 23 -77 7z"/>
<path d="M2503 975 c-91 -39 -62 -175 38 -175 41 0 53 10 44 39 -4 13 -12 17
-28 14 -30 -6 -51 19 -43 51 5 19 14 25 39 28 24 2 33 8 35 26 2 14 -2 22 -11
22 -9 0 -21 2 -29 5 -7 2 -27 -2 -45 -10z"/>
<path d="M2933 975 c-101 -44 -52 -189 58 -173 34 4 33 42 -1 46 -36 5 -51 22
-48 51 2 21 9 27 38 31 27 4 36 10 38 28 2 14 -2 22 -11 22 -9 0 -21 2 -29 5
-7 2 -27 -2 -45 -10z"/>
<path d="M3333 983 c-34 -7 -63 -50 -63 -95 0 -97 137 -125 175 -35 32 76 -30
147 -112 130z m55 -65 c28 -28 1 -75 -37 -63 -25 8 -34 31 -21 56 12 21 40 25
58 7z"/>
<path d="M3543 983 c-55 -10 -82 -102 -44 -152 26 -34 97 -40 134 -11 23 18
27 29 27 69 0 37 -5 52 -22 68 -25 22 -61 32 -95 26z m63 -79 c8 -32 -15 -59
-44 -50 -42 14 -31 76 13 76 18 0 26 -7 31 -26z"/>
<path d="M1410 890 l0 -90 30 0 30 0 0 74 c0 41 3 81 6 90 5 13 -1 16 -30 16
l-36 0 0 -90z"/>
<path d="M1537 962 c-21 -23 -21 -41 -1 -70 18 -26 12 -52 -11 -52 -13 0 -13
-3 -3 -20 16 -26 38 -25 72 1 31 25 32 38 5 73 -21 26 -18 46 6 46 8 0 11 7 8
20 -7 26 -54 27 -76 2z"/>
<path d="M2350 890 l0 -90 30 0 30 0 0 90 0 90 -30 0 -30 0 0 -90z"/>
<path d="M1720 566 c0 -80 1 -86 20 -86 11 0 23 8 26 18 16 52 32 57 55 16 10
-19 25 -30 44 -32 l28 -4 -32 57 -32 57 27 29 28 29 -28 0 c-18 0 -36 -10 -54
-32 l-27 -32 -5 30 c-4 20 -12 30 -28 32 -21 3 -22 1 -22 -82z"/>
<path d="M1936 629 c-20 -16 -26 -29 -26 -59 0 -55 27 -85 79 -85 48 0 77 24
87 72 5 27 1 37 -24 63 -36 36 -77 39 -116 9z m82 -21 c13 -13 16 -47 6 -72
-4 -9 -18 -16 -34 -16 -40 0 -56 53 -24 84 19 19 36 20 52 4z"/>
<path d="M2090 636 c0 -9 12 -16 28 -18 26 -3 27 -5 30 -70 3 -59 5 -68 22
-68 17 0 19 9 22 68 3 65 4 67 31 70 15 2 27 9 27 18 0 11 -17 14 -80 14 -63
0 -80 -3 -80 -14z"/>
<path d="M2306 641 c-10 -16 -56 -140 -56 -151 0 -16 40 -11 46 5 4 9 19 15
39 15 20 0 35 -6 39 -15 4 -12 46 -23 46 -12 0 2 -13 39 -29 83 -25 68 -32 79
-54 82 -14 2 -28 -1 -31 -7z m44 -73 c0 -10 -6 -18 -14 -18 -21 0 -25 11 -14
40 7 20 11 22 18 10 5 -8 10 -23 10 -32z"/>
<path d="M2530 565 l0 -85 44 0 c86 0 121 31 90 77 -11 18 -13 28 -5 36 29 29
-7 57 -75 57 l-54 0 0 -85z m88 38 c2 -8 -6 -13 -22 -13 -25 0 -33 10 -19 24
10 10 36 3 41 -11z m10 -65 c3 -14 -3 -18 -27 -18 -29 0 -41 17 -24 34 13 13
48 1 51 -16z"/>
<path d="M2736 629 c-21 -16 -26 -29 -26 -63 0 -54 26 -81 80 -81 53 0 80 27
80 79 0 47 -6 58 -37 75 -33 17 -67 13 -97 -10z m82 -21 c13 -13 16 -47 6 -72
-4 -10 -18 -16 -35 -16 -22 0 -30 6 -35 26 -13 52 31 95 64 62z"/>
<path d="M2936 629 c-30 -24 -36 -81 -11 -116 20 -29 75 -39 112 -21 23 11 28
20 28 48 0 32 -3 35 -32 38 -28 3 -33 0 -33 -17 0 -12 7 -21 15 -21 8 0 15 -4
15 -10 0 -17 -67 -12 -74 6 -21 54 14 98 59 74 12 -7 31 -10 41 -8 18 3 17 5
-4 26 -28 28 -80 29 -116 1z"/>
<path d="M3143 638 c-28 -13 -46 -57 -38 -91 10 -39 41 -62 87 -62 51 0 78 30
78 85 0 64 -65 98 -127 68z m78 -42 c7 -14 9 -36 5 -51 -6 -22 -11 -26 -39
-23 -28 3 -32 7 -35 36 -6 59 47 87 69 38z"/>
<path d="M3310 565 c0 -77 2 -85 19 -85 15 0 21 8 23 32 4 44 22 45 46 3 16
-26 28 -35 47 -35 l26 0 -22 39 c-20 37 -21 41 -5 56 40 41 6 75 -75 75 l-59
0 0 -85z m95 35 c0 -18 -33 -26 -47 -12 -6 6 -7 15 -3 22 10 16 50 8 50 -10z"/>
</g>
</svg>
